<svg id="Layer_1" data-name="Layer 1" xmlns="http://www.w3.org/2000/svg" viewBox="0 0 264.48 472.29"><defs><style>.cls-1{font-size:20px;font-family:PTSans-NarrowBold, PT Sans Narrow;font-weight:700;}.cls-1,.cls-8{fill:#4b4c4d;}.cls-2{letter-spacing:-0.01em;}.cls-3{letter-spacing:-0.01em;}.cls-4{letter-spacing:-0.01em;}.cls-5{letter-spacing:-0.02em;}.cls-6{letter-spacing:-0.03em;}.cls-7{letter-spacing:-0.01em;}.cls-9{fill:#e6cf75;}</style></defs><title>KompetenceForsøg</title><text class="cls-1" transform="translate(0.06 17)">Adobe Photoshop</text><text class="cls-1" transform="translate(0.06 69.94)">Adobe Experien<tspan class="cls-2" x="112.12" y="0">c</tspan><tspan x="118.86" y="0">e Design</tspan></text><text x="-49.91" y="-7.37"></text><text class="cls-1" transform="translate(0.06 123.84)">Adobe Illustrator</text><text class="cls-1" transform="translate(0.06 177.75)">Final<tspan class="cls-3" x="34.98" y="0"> </tspan><tspan class="cls-4" x="38.84" y="0">C</tspan><tspan x="47.82" y="0">ut </tspan><tspan class="cls-5" x="66.66" y="0">P</tspan><tspan x="75.74" y="0">ro</tspan><tspan class="cls-6" x="90.5" y="0" xml:space="preserve"> X</tspan></text><text class="cls-1" transform="translate(0.06 230.33)">Adobe <tspan class="cls-5" x="49.34" y="0">P</tspan><tspan x="58.42" y="0">remiere </tspan><tspan class="cls-5" x="117.68" y="0">P</tspan><tspan x="126.76" y="0">ro</tspan></text><text class="cls-1" transform="translate(0.06 281.7)">Adobe InDesign</text><text class="cls-1" transform="translate(0.06 337.53)">Offi<tspan class="cls-2" x="25.6" y="0">c</tspan><tspan x="32.34" y="0">e-pak</tspan><tspan class="cls-7" x="72.3" y="0">k</tspan><tspan x="80.34" y="0">en</tspan></text><text class="cls-1" transform="translate(0.06 441.04)">CSS3</text><text class="cls-1" transform="translate(0.06 389.43)">HTML5</text><rect class="cls-8" x="0.06" y="23.74" width="127.86" height="25.03"/><rect class="cls-8" x="0.06" y="76.68" width="127.86" height="25.03"/><rect class="cls-8" x="0.06" y="129.62" width="127.86" height="25.03"/><rect class="cls-8" x="0.06" y="182.56" width="127.86" height="25.03"/><rect class="cls-8" x="0.06" y="235.5" width="127.86" height="25.03"/><rect class="cls-8" x="0.06" y="288.44" width="127.86" height="25.03"/><rect class="cls-8" x="0.06" y="341.38" width="127.86" height="25.03"/><rect class="cls-8" x="0.06" y="394.32" width="127.86" height="25.03"/><rect class="cls-8" x="0.06" y="447.26" width="127.86" height="25.03"/><circle class="cls-9" cx="12.97" cy="36.25" r="10.47"/><circle class="cls-9" cx="38.52" cy="36.25" r="10.47"/><circle class="cls-9" cx="64.08" cy="36.25" r="10.47"/><circle class="cls-9" cx="12.97" cy="89.19" r="10.47"/><circle class="cls-9" cx="38.52" cy="89.19" r="10.47"/><circle class="cls-9" cx="64.08" cy="89.19" r="10.47"/><circle class="cls-9" cx="89.14" cy="89.19" r="10.47"/><circle class="cls-9" cx="12.97" cy="195.07" r="10.47"/><circle class="cls-9" cx="38.52" cy="195.07" r="10.47"/><circle class="cls-9" cx="64.08" cy="195.07" r="10.47"/><circle class="cls-9" cx="89.14" cy="195.07" r="10.47"/><circle class="cls-9" cx="12.97" cy="248.01" r="10.47"/><circle class="cls-9" cx="12.97" cy="300.95" r="10.47"/><circle class="cls-9" cx="38.52" cy="248.01" r="10.47"/><circle class="cls-9" cx="64.08" cy="248.01" r="10.47"/><circle class="cls-9" cx="12.97" cy="406.84" r="10.47"/><circle class="cls-9" cx="38.52" cy="406.84" r="10.47"/><circle class="cls-9" cx="64.08" cy="406.84" r="10.47"/><circle class="cls-9" cx="12.97" cy="459.78" r="10.47"/><circle class="cls-9" cx="38.52" cy="459.78" r="10.47"/><circle class="cls-9" cx="64.08" cy="459.78" r="10.47"/><circle class="cls-9" cx="89.14" cy="248.01" r="10.47"/><circle class="cls-9" cx="12.97" cy="353.89" r="10.47"/><circle class="cls-9" cx="38.52" cy="353.89" r="10.47"/><circle class="cls-9" cx="64.08" cy="353.89" r="10.47"/><circle class="cls-9" cx="89.14" cy="353.89" r="10.47"/><circle class="cls-9" cx="113.13" cy="353.89" r="10.47"/><circle class="cls-9" cx="12.97" cy="142.13" r="10.47"/><circle class="cls-9" cx="38.52" cy="142.13" r="10.47"/><circle class="cls-9" cx="64.08" cy="142.13" r="10.47"/></svg>