<svg id="Layer_1" data-name="Layer 1" xmlns="http://www.w3.org/2000/svg" viewBox="0 0 150 150"><defs><style>.cls-1{fill:#e6cf75;}.cls-2{fill:#fff;}.cls-3{fill:#e6e6e8;}.cls-4,.cls-6,.cls-7{fill:none;stroke:#4b4c4d;stroke-miterlimit:10;}.cls-4{stroke-width:1.5px;}.cls-5{fill:#4b4c4d;}.cls-6{stroke-width:3px;}.cls-7{stroke-width:2.5px;}</style></defs><title>NyeIkonerSVG</title><ellipse class="cls-1" cx="75" cy="75" rx="71.41" ry="70.31"/><path class="cls-2" d="M96.78,27H42.18a4,4,0,0,0-4,4v87.84a3.74,3.74,0,0,0,.17,1.07L99.54,28.14A4.05,4.05,0,0,0,96.78,27Z"/><path class="cls-3" d="M42.18,123h54.6a4,4,0,0,0,4-4V31.08a4,4,0,0,0-1.27-2.94L38.31,120A4,4,0,0,0,42.18,123Z"/><line class="cls-4" x1="43.48" y1="42.9" x2="93.48" y2="42.9"/><line class="cls-4" x1="43.48" y1="55.74" x2="93.48" y2="55.74"/><line class="cls-4" x1="43.48" y1="68.58" x2="93.48" y2="68.58"/><line class="cls-4" x1="43.48" y1="81.42" x2="93.48" y2="81.42"/><line class="cls-4" x1="43.48" y1="94.26" x2="93.48" y2="94.26"/><line class="cls-4" x1="43.48" y1="107.1" x2="93.48" y2="107.1"/><path class="cls-5" d="M98.93,73.51,93.12,62.28,89.75,64l5.81,11.23a4.19,4.19,0,0,0-.88,5l7.85,15.18a4.22,4.22,0,0,0,5.68,1.81l1.37-.71a4.22,4.22,0,0,0,1.8-5.68l-7.85-15.18A4.22,4.22,0,0,0,98.93,73.51Z"/><circle class="cls-6" cx="84.39" cy="49.54" r="14.91"/><line class="cls-7" x1="69.68" y1="42.9" x2="93.84" y2="42.9"/><line class="cls-7" x1="71.04" y1="55.74" x2="93.84" y2="55.74"/></svg>