<svg id="Layer_1" data-name="Layer 1" xmlns="http://www.w3.org/2000/svg" viewBox="0 0 150 150"><defs><style>.cls-1{fill:#e6cf75;}.cls-2{fill:#6b6c6d;}.cls-3{fill:#5b5b5b;}.cls-4{fill:#4b4c4d;}.cls-5{fill:#ddd;}.cls-6{fill:#bcbcbc;}</style></defs><title>Nyeikoner</title><ellipse class="cls-1" cx="75.18" cy="75" rx="71.41" ry="70.31"/><polygon class="cls-2" points="85.55 103.13 64.72 103.13 62.95 115.02 87.4 115.02 85.55 103.13"/><rect class="cls-3" x="60.04" y="115.02" width="30.28" height="1.25"/><polygon class="cls-3" points="64.46 103.13 85.89 107.03 85.29 103.13 64.46 103.13"/><path class="cls-4" d="M127.91,39.93a6.21,6.21,0,0,0-6.2-6.2H28.64a6.21,6.21,0,0,0-6.2,6.2V91.54H127.91Z"/><path class="cls-2" d="M28.64,103.13h93.07a6.21,6.21,0,0,0,6.2-6.2V91.54H22.44v5.39A6.21,6.21,0,0,0,28.64,103.13Z"/><rect class="cls-5" x="30.57" y="40.92" width="89.21" height="45.65"/><circle class="cls-3" cx="75.18" cy="97.14" r="1.95"/><polygon class="cls-6" points="30.57 86.57 119.78 40.92 119.78 86.57 30.57 86.57"/></svg>