<svg id="Layer_1" data-name="Layer 1" xmlns="http://www.w3.org/2000/svg" viewBox="0 0 150 150"><defs><style>.cls-1{fill:#e6cf75;}.cls-2{fill:#4b4c4d;}.cls-3{fill:#5b5b5b;}.cls-4{fill:#adadad;}.cls-5{fill:#a0a0a0;}.cls-6{fill:#6b6c6d;}.cls-7{fill:#fff;opacity:0.5;}</style></defs><title>NyeIkonerSVG</title><ellipse class="cls-1" cx="75" cy="75" rx="71.41" ry="70.31"/><rect class="cls-2" x="30.19" y="47.5" width="89.61" height="49.63" rx="7.43" ry="7.43"/><path class="cls-3" d="M44.51,44.09h5.77a1,1,0,0,1,1,1V47.5a0,0,0,0,1,0,0H43.54a0,0,0,0,1,0,0V45.05A1,1,0,0,1,44.51,44.09Z"/><path class="cls-3" d="M84.25,42.19h18.24a2.08,2.08,0,0,1,2.08,2.08V47.5a0,0,0,0,1,0,0H82.15a0,0,0,0,1,0,0V44.29A2.1,2.1,0,0,1,84.25,42.19Z"/><rect class="cls-4" x="30.19" y="58.39" width="89.61" height="26.75"/><polygon class="cls-5" points="30.19 85.14 119.81 58.39 119.81 85.14 30.19 85.14"/><circle class="cls-3" cx="93.52" cy="72.32" r="14.9"/><circle class="cls-6" cx="93.52" cy="72.32" r="10.66"/><circle class="cls-3" cx="93.52" cy="72.32" r="6.07"/><circle class="cls-6" cx="93.52" cy="72.32" r="3.89"/><circle class="cls-7" cx="93.52" cy="65.69" r="1.46"/><circle class="cls-7" cx="91.05" cy="69.46" r="2.3"/></svg>