<svg id="Layer_1" data-name="Layer 1" xmlns="http://www.w3.org/2000/svg" viewBox="0 0 70 70"><defs><style>.cls-1{fill:#e6cf75;}.cls-2{fill:#4b4c4d;}.cls-3{fill:none;stroke:#4b4c4d;stroke-miterlimit:10;}</style></defs><title>ProfilIkonerSVG</title><circle class="cls-1" cx="35.22" cy="35.64" r="31.71"/><path class="cls-2" d="M30.6,35.22a12.54,12.54,0,0,1-.49-2.42c0-.37,0-1.28.05-1.92l0-1a4.82,4.82,0,0,0,.54-.13l4.71-1.51a3.57,3.57,0,0,0,2.3-4.49L37,21.45a3.57,3.57,0,0,0-4.49-2.31l-4.71,1.51a3.55,3.55,0,0,0-2,1.71h0l-.09.17A8.67,8.67,0,0,0,24.74,26a40.24,40.24,0,0,0,.55,8.05c0,.33.07.63.11.85A27.8,27.8,0,0,0,26.46,39c.06.16.12.29.18.45l4.72-1.67C31,36.75,30.78,36,30.6,35.22Z"/><path class="cls-3" d="M30.26,29.4a16.19,16.19,0,0,0,0,2.77,24.6,24.6,0,0,0,1.39,5.54"/><path class="cls-2" d="M30.6,35.22a12.54,12.54,0,0,1-.49-2.42c0-.37,0-1.28.05-1.92l0-1a4.82,4.82,0,0,0,.54-.13l4.71-1.51a3.57,3.57,0,0,0,2.3-4.49L37,21.45a3.57,3.57,0,0,0-4.49-2.31l-4.71,1.51a3.55,3.55,0,0,0-2,1.71h0l-.09.17A8.67,8.67,0,0,0,24.74,26a40.24,40.24,0,0,0,.55,8.05c0,.33.07.63.11.85A27.8,27.8,0,0,0,26.46,39c.06.16.12.29.18.45l4.72-1.67C31,36.75,30.78,36,30.6,35.22Z"/><path class="cls-3" d="M30.61,28.93a17.07,17.07,0,0,0,0,2.76A25.1,25.1,0,0,0,32,37.24"/><path class="cls-2" d="M31.86,38.82A13,13,0,0,0,33,41c.21.31.81,1,1.24,1.47l.64.76a3.08,3.08,0,0,1,.5-.24L40,41.23a3.57,3.57,0,0,1,4.61,2.05l.87,2.27a3.57,3.57,0,0,1-2,4.61l-4.62,1.77a3.54,3.54,0,0,1-2.66,0h0L36,51.8a8.51,8.51,0,0,1-2.92-2.16A40.06,40.06,0,0,1,28.44,43c-.18-.28-.34-.53-.45-.73a27.77,27.77,0,0,1-1.74-3.87c-.06-.16-.1-.3-.15-.46l4.73-1.66C31.21,37.38,31.55,38.14,31.86,38.82Z"/><path class="cls-3" d="M35.25,43.56a15.79,15.79,0,0,1-1.71-2.17,24.87,24.87,0,0,1-2.39-5.19"/><path class="cls-2" d="M31.86,38.82A13,13,0,0,0,33,41c.21.31.81,1,1.24,1.47l.64.76a3.08,3.08,0,0,1,.5-.24L40,41.23a3.57,3.57,0,0,1,4.61,2.05l.87,2.27a3.57,3.57,0,0,1-2,4.61l-4.62,1.77a3.54,3.54,0,0,1-2.66,0h0L36,51.8a8.51,8.51,0,0,1-2.92-2.16A40.06,40.06,0,0,1,28.44,43c-.18-.28-.34-.53-.45-.73a27.77,27.77,0,0,1-1.74-3.87c-.06-.16-.1-.3-.15-.46l4.73-1.66C31.21,37.38,31.55,38.14,31.86,38.82Z"/><path class="cls-3" d="M35.59,43.09a18.27,18.27,0,0,1-1.71-2.17,24.69,24.69,0,0,1-2.39-5.2"/></svg>